<svg width="250" height="46" viewBox="0 0 250 46" fill="none" xmlns="http://www.w3.org/2000/svg">
<path d="M7.2 24.4V30.16H16.128V34H2.72V11.6H16.128V15.44H7.2V20.56H14.208V24.4H7.2ZM23.6745 34L19.9625 31.856V10.64H24.3465V30.256H27.5465V34H23.6745ZM43.7113 30.256V34H34.1433L30.4313 31.856V19.984L34.1433 17.84H39.9993L43.7113 19.984V27.632H34.8153V30.256H43.7113ZM34.8153 21.584V24.336H39.3273V21.584H34.8153ZM52.909 21.744V30.256H60.845V34H52.237L48.525 31.856V20.144L52.237 18H60.845V21.744H52.909ZM63.7138 21.744V18H66.6578V15.312L71.0417 12.784V18H74.5618V21.744H71.0417V30.256H74.5618V34H70.3698L66.6578 31.856V21.744H63.7138ZM88.6005 21.744H83.0965V34H78.7125V18H82.3285L83.0965 19.312L85.3685 18H88.6005V21.744ZM106.046 32.016L102.334 34.16H95.5183L91.8063 32.016V19.984L95.5183 17.84H102.334L106.046 19.984V32.016ZM96.1903 21.584V30.416H101.662V21.584H96.1903Z" fill="#FFBD2E"/>
<g clip-path="url(#clip0_1232_175)">
<g filter="url(#filter0_d_1232_175)">
<path fill-rule="evenodd" clip-rule="evenodd" d="M128.3 14.046C128.503 14.1099 128.68 14.2368 128.806 14.4084C128.932 14.5799 129 14.7872 129 15V20H133C133.183 19.9999 133.362 20.05 133.519 20.1448C133.675 20.2397 133.803 20.3756 133.887 20.5378C133.972 20.7 134.01 20.8822 133.998 21.0648C133.986 21.2473 133.925 21.4231 133.82 21.573L126.82 31.573C126.698 31.7476 126.524 31.8787 126.322 31.9473C126.121 32.0159 125.903 32.0184 125.7 31.9545C125.497 31.8906 125.319 31.7635 125.193 31.5919C125.068 31.4202 125 31.2129 125 31V26H121C120.817 26.0001 120.638 25.95 120.481 25.8552C120.325 25.7604 120.197 25.6245 120.113 25.4623C120.028 25.3001 119.99 25.1178 120.002 24.9353C120.013 24.7527 120.075 24.5769 120.18 24.427L127.18 14.427C127.302 14.2528 127.476 14.122 127.678 14.0537C127.879 13.9854 128.097 13.983 128.3 14.047V14.046Z" fill="#FFBD2E"/>
</g>
</g>
<path d="M166.408 11.6L158.408 34H153.48L145.48 11.6H150.024L155.944 28.528H156.008L161.864 11.6H166.408ZM173.659 18V34H169.275V18H173.659ZM169.115 15.024V10.64H173.819V15.024H169.115ZM191.743 30.256V34H182.175L178.463 31.856V19.984L182.175 17.84H188.031L191.743 19.984V27.632H182.847V30.256H191.743ZM182.847 21.584V24.336H187.359V21.584H182.847ZM206.476 23.888H206.412L203.596 34H199.052L194.956 18H199.02L201.516 28.208H201.58L204.428 18H208.46L211.308 28.208H211.372L213.868 18H217.932L213.836 34H209.292L206.476 23.888ZM234.399 30.256V34H224.831L221.119 31.856V19.984L224.831 17.84H230.687L234.399 19.984V27.632H225.503V30.256H234.399ZM225.503 21.584V24.336H230.015V21.584H225.503ZM249.101 21.744H243.597V34H239.213V18H242.829L243.597 19.312L245.869 18H249.101V21.744Z" fill="#FFBD2E"/>
<defs>
<filter id="filter0_d_1232_175" x="116" y="10.0007" width="22.001" height="26" filterUnits="userSpaceOnUse" color-interpolation-filters="sRGB">
<feFlood flood-opacity="0" result="BackgroundImageFix"/>
<feColorMatrix in="SourceAlpha" type="matrix" values="0 0 0 0 0 0 0 0 0 0 0 0 0 0 0 0 0 0 127 0" result="hardAlpha"/>
<feOffset/>
<feGaussianBlur stdDeviation="2"/>
<feComposite in2="hardAlpha" operator="out"/>
<feColorMatrix type="matrix" values="0 0 0 0 1 0 0 0 0 0.741176 0 0 0 0 0.180392 0 0 0 0.28 0"/>
<feBlend mode="normal" in2="BackgroundImageFix" result="effect1_dropShadow_1232_175"/>
<feBlend mode="normal" in="SourceGraphic" in2="effect1_dropShadow_1232_175" result="shape"/>
</filter>
<clipPath id="clip0_1232_175">
<rect width="20" height="20" fill="white" transform="translate(117 13)"/>
</clipPath>
</defs>
</svg>
